<svg xmlns="http://www.w3.org/2000/svg" width="166" height="29" viewBox="0 0 166 29" fill="none"><style>.logo-navy{fill:#003052;}</style><path d="M16.3 28.9C16.2 29 16.1 29 16 28.9L2.9 16.1C-0.7 12.6-1 6.6 2.4 3 4.2 1.1 6.7 0 9.4 0 11.9 0 14.3 1 16.1 2.7L14 4.8C12.7 3.6 11.1 3 9.4 3 7.4 3 5.6 3.8 4.3 5.3 2.2 7.9 2.6 11.6 4.9 13.9L18.1 26.9C18.2 26.9 18.2 27 18.1 27.1L16.3 28.9" class="logo-navy"/><path d="M23.4 16.8C22.7 17.5 22.7 18.6 23.4 19.3 24.1 20 25.3 20 26 19.3 26.7 18.6 26.7 17.5 26 16.8 25.3 16.1 24.1 16.1 23.4 16.8" class="logo-navy"/><path d="M17.7 10.7C17 11.8 15.3 11.8 14.5 10.7 14 10.1 14 9.2 14.5 8.6 14.9 8 15.5 7.7 16.1 7.7 16.7 7.7 17.3 8 17.7 8.6 18.2 9.2 18.2 10.1 17.7 10.7ZM31.9 6.5C31.7 6 31.6 5.6 31.4 5.2 28.2-0.7 20.5-1.6 16.1 2.7L16.1 2.7 12.6 6.2 12.4 6.4C10.8 8.3 10.7 11.1 12.4 12.9 13.4 14 14.8 14.5 16.1 14.5 17.4 14.5 18.7 14 19.6 13.1 21.6 11.2 21.6 8.1 19.6 6.2 19.6 6.2 19.6 6.2 19.6 6.2L18.2 4.8C21.1 2.1 25.8 2.4 28.2 5.7 28.7 6.5 29 7.3 29.2 8.2 29.5 10.2 28.9 12.2 27.6 13.6 27.5 13.7 27.5 13.9 27.6 14L29.3 15.7C29.4 15.8 29.6 15.8 29.7 15.7 32.1 13.3 32.9 9.9 31.9 6.5Z" class="logo-navy"/><path d="M77.5 0.7C76.7 1.4 76.7 2.5 77.5 3.2 78.2 3.9 79.3 3.9 80.1 3.2 80.8 2.5 80.8 1.4 80.1 0.7 79.3 0 78.2 0 77.5 0.7Z" class="logo-navy"/><path d="M74 7.9C73 7.9 72.1 8.2 71.4 8.7 70.8 9.1 70.3 9.6 69.9 10.2 69.9 10 69.9 9.9 69.9 9.7 69.8 9.2 69.8 8.8 69.8 8.5L69.8 8.3H66.8L66.8 8.5C66.9 8.9 66.9 9.4 66.9 10 66.9 10.6 66.9 11 66.9 11.4V21.8C66.9 22 67.1 22.1 67.2 22.1H69.8C69.9 22.1 70 22 70 21.8V14.9C70 14.3 70.1 13.8 70.3 13.3 70.4 12.8 70.6 12.3 70.9 12 71.2 11.6 71.6 11.3 72.1 11.1 72.5 10.9 73.1 10.7 73.7 10.7 74.1 10.7 74.5 10.8 74.9 10.9L75.1 10.9 75.2 8.1 75.1 8.1C74.8 8 74.4 7.9 74 7.9Z" class="logo-navy"/><path d="M77.5 22.1H80C80.2 22.1 80.3 22 80.3 21.8V8.6C80.3 8.4 80.2 8.3 80 8.3H77.5C77.3 8.3 77.2 8.4 77.2 8.6V21.8C77.2 22 77.3 22.1 77.5 22.1Z" class="logo-navy"/><path d="M90.3 10.5C91 10.5 91.6 10.6 92.2 10.9 92.7 11.1 93.2 11.5 93.5 11.9 93.9 12.4 94.2 12.9 94.4 13.4 94.5 14 94.6 14.6 94.6 15.2 94.6 15.8 94.5 16.4 94.4 16.9 94.2 17.5 93.9 18 93.5 18.4 93.2 18.8 92.7 19.2 92.2 19.5 91.6 19.7 91 19.8 90.3 19.8 89.6 19.8 89 19.7 88.5 19.5 87.9 19.2 87.5 18.9 87.1 18.5 86.7 18 86.4 17.5 86.2 17 86 16.4 85.8 15.8 85.8 15.2 85.8 14.6 86 14 86.2 13.4 86.4 12.9 86.7 12.4 87.1 11.9 87.5 11.5 87.9 11.1 88.5 10.9 89 10.6 89.6 10.5 90.3 10.5ZM95.8 10C95.2 9.4 94.5 8.9 93.6 8.5 92.8 8.1 91.8 7.9 90.8 7.9 89.6 7.9 88.6 8.2 87.7 8.6 87 9 86.4 9.5 86 10.1V8.6C86 8.4 85.8 8.3 85.7 8.3H83.2C83 8.3 82.9 8.4 82.9 8.6V28.6C82.9 28.8 83 28.9 83.2 28.9H85.7C85.9 28.9 86 28.8 86 28.6V20.4C86.5 21 87.1 21.5 87.9 21.8 88.8 22.2 89.7 22.5 90.7 22.5 91.8 22.5 92.8 22.3 93.6 21.9 94.5 21.5 95.3 21 95.9 20.3 96.5 19.7 97 18.9 97.3 18 97.6 17.1 97.8 16.2 97.8 15.2 97.8 14.2 97.6 13.2 97.3 12.3 96.9 11.5 96.5 10.7 95.8 10Z" class="logo-navy"/><path d="M116 19.8C115.3 19.8 114.6 19.7 114.1 19.5 113.6 19.2 113.1 18.9 112.7 18.4 112.4 18 112.1 17.5 111.9 16.9 111.7 16.4 111.6 15.8 111.6 15.2 111.6 14.6 111.7 14 111.9 13.4 112.1 12.9 112.4 12.4 112.7 11.9 113.1 11.5 113.6 11.2 114.1 10.9 114.6 10.7 115.3 10.5 116 10.5 116.6 10.5 117.2 10.7 117.8 10.9 118.3 11.2 118.8 11.5 119.2 11.9 119.6 12.4 119.9 12.9 120.1 13.4 120.3 14 120.4 14.6 120.4 15.2 120.4 15.8 120.3 16.4 120.1 17 119.9 17.5 119.6 18 119.2 18.5 118.8 18.9 118.3 19.2 117.8 19.5 117.2 19.7 116.6 19.8 116 19.8ZM120.2 10C119.8 9.5 119.2 9 118.5 8.7 117.6 8.2 116.6 7.9 115.5 7.9 114.4 7.9 113.5 8.1 112.6 8.5 111.7 8.9 111 9.4 110.4 10 109.7 10.7 109.3 11.5 108.9 12.3 108.6 13.2 108.4 14.2 108.4 15.2 108.4 16.2 108.6 17.1 108.9 18 109.3 18.9 109.7 19.7 110.4 20.3 111 21 111.7 21.5 112.6 21.9 113.4 22.3 114.4 22.5 115.5 22.5 116.5 22.5 117.5 22.2 118.4 21.8 119.2 21.4 119.8 20.9 120.3 20.3V21.8C120.3 22 120.4 22.1 120.6 22.1H123C123.2 22.1 123.3 22 123.3 21.8V0.6C123.3 0.4 123.2 0.3 123 0.3H120.5C120.3 0.3 120.2 0.4 120.2 0.6V10Z" class="logo-navy"/><path d="M132.8 7.9C131.8 7.9 130.9 8.2 130.2 8.7 129.6 9.1 129.1 9.6 128.7 10.2 128.7 10 128.7 9.9 128.7 9.7 128.6 9.2 128.6 8.8 128.6 8.5L128.6 8.3H125.6L125.6 8.5C125.7 8.9 125.7 9.4 125.7 10 125.7 10.6 125.7 11 125.7 11.4V21.8C125.7 22 125.9 22.1 126 22.1H128.6C128.7 22.1 128.8 22 128.8 21.8V14.9C128.8 14.3 128.9 13.8 129.1 13.3 129.2 12.8 129.4 12.3 129.7 12 130 11.6 130.4 11.3 130.9 11.1 131.3 10.9 131.9 10.7 132.5 10.7 132.9 10.7 133.3 10.8 133.7 10.9L133.9 10.9 134 8.1 133.9 8.1C133.6 8 133.2 7.9 132.8 7.9Z" class="logo-navy"/><path d="M141.9 10.5C142.6 10.5 143.2 10.7 143.8 10.9 144.3 11.2 144.8 11.5 145.2 11.9 145.5 12.4 145.8 12.9 146 13.4 146.2 14 146.3 14.6 146.3 15.2 146.3 15.8 146.2 16.4 146 17 145.8 17.5 145.5 18 145.2 18.4 144.8 18.9 144.3 19.2 143.8 19.5 143.2 19.7 142.6 19.8 141.9 19.8 141.2 19.8 140.6 19.7 140 19.5 139.5 19.2 139 18.9 138.7 18.4 138.3 18 138 17.5 137.8 17 137.6 16.4 137.5 15.8 137.5 15.2 137.5 14.6 137.6 14 137.8 13.4 138 12.9 138.3 12.4 138.7 11.9 139 11.5 139.5 11.2 140 10.9 140.6 10.7 141.2 10.5 141.9 10.5ZM147.3 10C146.6 9.3 145.8 8.8 144.9 8.5 144 8.1 143 7.9 141.9 7.9 140.9 7.9 139.9 8.1 138.9 8.5 138 8.8 137.2 9.3 136.5 10 135.9 10.6 135.3 11.4 135 12.3 134.6 13.1 134.4 14.1 134.4 15.2 134.4 16.2 134.6 17.2 135 18.1 135.3 19 135.9 19.8 136.5 20.4 137.2 21.1 138 21.6 138.9 21.9 139.9 22.3 140.9 22.5 141.9 22.5 143 22.5 144 22.3 144.9 21.9 145.8 21.6 146.6 21.1 147.3 20.4 148 19.8 148.5 19 148.9 18.1 149.3 17.2 149.5 16.2 149.5 15.2 149.5 14.1 149.3 13.1 148.9 12.3 148.5 11.4 148 10.6 147.3 10Z" class="logo-navy"/><path d="M158.5 10.5C159.2 10.5 159.8 10.6 160.4 10.9 160.9 11.1 161.4 11.5 161.7 11.9 162.1 12.4 162.4 12.9 162.6 13.4 162.8 14 162.8 14.6 162.8 15.2 162.8 15.8 162.8 16.4 162.6 16.9 162.4 17.5 162.1 18 161.7 18.4 161.4 18.8 160.9 19.2 160.4 19.5 159.8 19.7 159.2 19.8 158.5 19.8 157.8 19.8 157.2 19.7 156.7 19.5 156.1 19.2 155.7 18.9 155.3 18.5 154.9 18 154.6 17.5 154.4 17 154.2 16.4 154.1 15.8 154.1 15.2 154.1 14.6 154.2 14 154.4 13.4 154.6 12.9 154.9 12.4 155.3 11.9 155.7 11.5 156.1 11.1 156.7 10.9 157.2 10.6 157.8 10.5 158.5 10.5ZM165.5 12.3C165.2 11.5 164.7 10.7 164.1 10 163.4 9.4 162.7 8.9 161.8 8.5 161 8.1 160 7.9 159 7.9 157.8 7.9 156.8 8.2 155.9 8.6 155.2 9 154.6 9.5 154.2 10.1V8.6C154.2 8.4 154.1 8.3 153.9 8.3H151.4C151.3 8.3 151.1 8.4 151.1 8.6V28.6C151.1 28.8 151.3 28.9 151.4 28.9H154C154.1 28.9 154.2 28.8 154.2 28.6V20.4C154.7 21 155.3 21.5 156.1 21.8 157 22.2 157.9 22.5 158.9 22.5 160 22.5 161 22.3 161.9 21.9 162.7 21.5 163.5 21 164.1 20.3 164.7 19.7 165.2 18.9 165.5 18 165.8 17.1 166 16.2 166 15.2 166 14.2 165.8 13.2 165.5 12.3Z" class="logo-navy"/><path d="M107.3 10.6V8.6C107.3 8.4 107.2 8.3 107 8.3H103.7V3.4C103.7 3.1 103.4 3 103.2 3.2L100.7 5.7C100.6 5.7 100.6 5.7 100.6 5.8V8.3H98.3C98.1 8.3 98 8.4 98 8.6V10.6C98 10.7 98.1 10.9 98.3 10.9H100.6V17.9C100.6 19.4 101 20.5 101.7 21.2 102.4 21.9 103.5 22.3 104.8 22.3 105.2 22.3 105.6 22.3 106.1 22.2 106.5 22.2 106.8 22.1 107.2 21.9L107.3 21.9 107.2 19.3 106.9 19.4C106.7 19.5 106.5 19.6 106.2 19.6 105.9 19.7 105.7 19.7 105.4 19.7 104.8 19.7 104.4 19.6 104.1 19.3 103.8 18.9 103.7 18.4 103.7 17.6V10.9H107C107.2 10.9 107.3 10.7 107.3 10.6Z" class="logo-navy"/><path d="M63 18.3L62.9 18.4C62.5 18.9 62.1 19.2 61.5 19.5 61 19.7 60.4 19.8 59.7 19.8 59 19.8 58.4 19.7 57.9 19.5 57.4 19.2 56.9 18.9 56.6 18.5 56.2 18 55.9 17.5 55.7 17 55.5 16.4 55.4 15.8 55.4 15.2 55.4 14.6 55.5 14 55.7 13.4 55.9 12.9 56.2 12.4 56.6 11.9 56.9 11.5 57.4 11.2 57.9 10.9 58.4 10.7 59 10.5 59.7 10.5 60.3 10.5 60.9 10.7 61.5 11 62 11.2 62.4 11.6 62.7 12L62.8 12.2 64.9 10.1C64.3 9.4 63.5 8.9 62.6 8.5 61.6 8.1 60.7 7.9 59.7 7.9 58.6 7.9 57.6 8.1 56.7 8.5 55.8 8.8 55 9.3 54.3 9.9 53.6 10.6 53.1 11.4 52.7 12.2 52.4 13.1 52.2 14.1 52.2 15.2 52.2 16.3 52.4 17.3 52.8 18.2 53.1 19.1 53.7 19.8 54.3 20.5 55 21.1 55.8 21.6 56.7 21.9 57.6 22.3 58.7 22.5 59.7 22.5 60.8 22.5 61.9 22.3 62.7 21.9 63.6 21.5 64.4 21 65 20.3L65 20.3 63 18.3Z" class="logo-navy"/><path d="M49.6 15.1C49.2 14.8 48.7 14.6 48.1 14.3 47.5 14.1 46.9 13.9 46.3 13.8 45.2 13.6 44.5 13.3 44 13.1 43.5 12.8 43.3 12.5 43.3 12 43.3 11.7 43.4 11.5 43.5 11.3 43.6 11.1 43.8 10.9 44 10.8 44.2 10.7 44.5 10.6 44.8 10.5 45 10.4 45.3 10.4 45.6 10.4 46.3 10.4 46.9 10.6 47.4 10.8 47.8 11.1 48.1 11.3 48.4 11.6 48.5 11.8 48.7 11.8 48.8 11.7L50.4 10.1C50.5 10 50.5 9.8 50.4 9.7 49.9 9.2 49.3 8.8 48.6 8.5 47.7 8.1 46.7 7.9 45.7 7.9 45.1 7.9 44.4 8 43.8 8.2 43.1 8.3 42.6 8.6 42.1 8.9 41.6 9.3 41.2 9.7 40.8 10.3 40.5 10.8 40.4 11.5 40.4 12.2 40.4 12.9 40.5 13.4 40.8 13.9 41 14.3 41.3 14.7 41.7 15 42.1 15.3 42.6 15.5 43.1 15.7 43.6 15.9 44 16 44.5 16.1 45.6 16.4 46.5 16.7 47.1 17 47.7 17.2 47.9 17.6 47.9 18.2 47.9 18.5 47.9 18.8 47.7 19 47.6 19.2 47.4 19.4 47.2 19.5 46.9 19.7 46.7 19.8 46.4 19.8 46.1 19.9 45.7 19.9 45.4 19.9 44.7 19.9 44 19.8 43.4 19.4 42.9 19.2 42.5 18.9 42.2 18.5 42.1 18.4 41.9 18.4 41.8 18.5L40.2 20.1C40.1 20.2 40.1 20.4 40.2 20.5 40.7 21.1 41.4 21.5 42.2 21.9 43.2 22.3 44.3 22.5 45.3 22.5 46 22.5 46.7 22.4 47.4 22.2 48.1 22.1 48.7 21.8 49.2 21.5 49.8 21.1 50.2 20.6 50.5 20 50.8 19.5 51 18.8 51 17.9 51 17.3 50.9 16.8 50.6 16.3 50.4 15.9 50 15.5 49.6 15.1Z" class="logo-navy"/></svg>